<?xml version="1.0" standalone="no"?>
<!DOCTYPE svg PUBLIC "-//W3C//DTD SVG 20010904//EN"
 "http://www.w3.org/TR/2001/REC-SVG-20010904/DTD/svg10.dtd">
<svg version="1.0" xmlns="http://www.w3.org/2000/svg"
 width="703.000000pt" height="703.000000pt" viewBox="0 0 703.000000 703.000000"
 preserveAspectRatio="xMidYMid meet">
<metadata>
Created by potrace 1.14, written by Peter Selinger 2001-2017
</metadata>
<g transform="translate(0.000000,703.000000) scale(0.100000,-0.100000)"
fill="#000000" stroke="none">
<path d="M1610 5193 c0 -7 -8 -11 -17 -11 -10 1 -35 -2 -55 -6 -21 -3 -55 -9
-75 -12 -46 -7 -66 -12 -73 -15 -3 -1 -9 -3 -15 -3 -5 -1 -44 -13 -85 -26 -41
-13 -82 -25 -90 -26 -8 -2 -16 -8 -18 -14 -2 -5 -8 -8 -12 -5 -5 3 -25 -4 -44
-15 -20 -11 -36 -17 -36 -15 0 3 -18 -6 -39 -19 -21 -14 -41 -22 -45 -19 -3 3
-8 -2 -12 -11 -3 -9 -10 -13 -15 -11 -4 3 -17 -3 -29 -15 -11 -11 -20 -17 -20
-14 0 4 -7 1 -15 -6 -8 -7 -15 -10 -15 -6 0 3 -9 -2 -19 -11 -35 -32 -50 -43
-59 -43 -4 0 -26 -17 -48 -37 -22 -21 -45 -40 -50 -43 -29 -15 -134 -118 -134
-133 0 -4 -4 -5 -10 -2 -5 3 -10 2 -10 -3 0 -5 -18 -28 -41 -50 -22 -23 -37
-42 -33 -42 4 0 -3 -9 -16 -20 -13 -11 -20 -20 -16 -20 4 0 0 -7 -8 -16 -9 -8
-33 -41 -53 -72 -21 -31 -41 -59 -45 -60 -5 -2 -6 -8 -2 -13 3 -5 0 -9 -6 -9
-6 0 -9 -4 -5 -9 3 -5 0 -15 -7 -23 -12 -12 -62 -106 -63 -118 0 -3 -6 -15
-13 -27 -7 -13 -10 -23 -7 -23 3 0 -2 -11 -11 -25 -9 -14 -13 -25 -9 -25 4 0
2 -6 -4 -13 -6 -8 -12 -22 -14 -33 -1 -10 -5 -23 -9 -29 -11 -18 -37 -128 -32
-137 3 -4 0 -8 -5 -8 -6 0 -10 -3 -10 -7 1 -5 0 -10 -1 -13 -2 -5 -8 -59 -14
-130 -3 -25 -5 -45 -7 -45 -7 0 -5 -303 2 -317 6 -10 5 -19 -1 -23 -6 -4 -7
-11 -4 -17 7 -11 10 -30 18 -94 1 -17 5 -35 8 -40 3 -5 8 -27 12 -49 7 -42 31
-124 47 -162 18 -46 27 -69 44 -113 73 -197 313 -520 474 -640 19 -14 43 -34
55 -44 22 -20 183 -126 190 -126 3 0 27 -13 53 -28 26 -16 68 -36 93 -46 25
-10 56 -23 70 -29 14 -6 27 -11 30 -12 3 0 39 -11 80 -24 118 -36 131 -39 195
-50 33 -5 76 -13 95 -16 43 -8 376 -10 410 -2 14 3 42 8 62 11 33 5 71 13 153
32 11 3 30 7 43 10 12 2 53 16 90 30 37 14 72 26 77 28 27 7 155 70 155 77 0
4 12 10 27 14 15 3 30 10 33 14 3 4 33 25 68 46 34 21 62 42 62 48 0 6 3 8 6
4 4 -3 12 -1 19 6 6 7 27 23 45 37 56 42 269 259 269 276 1 7 85 119 94 122 4
2 5 7 2 12 -3 5 1 14 8 22 7 7 33 54 58 103 l46 90 451 3 c421 2 452 3 453 20
0 9 1 56 2 105 0 78 -2 90 -23 112 l-22 24 -312 -1 c-421 0 -395 -1 -391 20 2
9 4 83 4 164 l1 147 325 0 c178 -1 328 2 333 4 4 3 7 48 6 99 -2 121 -1 115
-24 136 -19 15 -52 17 -323 19 -166 0 -305 2 -309 2 -5 1 -8 59 -8 129 l0 128
343 -1 c188 0 349 1 358 3 13 3 16 20 16 107 1 89 -2 107 -19 124 -10 12 -22
21 -26 22 -4 1 -199 2 -434 3 -327 1 -430 4 -440 14 -6 6 -9 12 -5 12 11 0
-82 170 -103 190 -3 3 -14 19 -24 35 -55 86 -241 288 -306 331 -14 9 -29 22
-35 29 -18 20 -208 141 -280 178 -70 35 -187 85 -215 92 -8 2 -28 8 -45 15
-16 6 -31 11 -32 11 -2 -1 -4 -1 -5 0 -2 0 -10 2 -18 4 -8 2 -26 7 -40 10 -68
18 -138 30 -225 41 -73 9 -266 11 -296 3 -16 -4 -32 -2 -38 4 -8 8 -11 8 -11
0z m335 -27 c22 -3 60 -8 85 -11 91 -10 143 -23 278 -66 118 -38 350 -148 360
-171 2 -5 8 -8 14 -8 6 0 27 -13 48 -30 21 -16 41 -30 44 -30 9 0 63 -48 164
-145 93 -89 228 -261 290 -372 61 -109 61 -110 5 -109 l-48 1 -1 -660 c0 -646
0 -660 20 -682 13 -15 31 -23 53 -23 18 0 33 -3 33 -7 1 -10 -73 -156 -81
-163 -3 -3 -12 -16 -19 -30 -7 -14 -44 -66 -81 -116 -176 -235 -408 -417 -679
-532 -187 -79 -378 -120 -589 -126 -771 -23 -1463 509 -1641 1259 -37 156 -41
193 -45 355 -3 130 17 317 44 408 5 18 10 36 11 40 15 105 124 349 218 491
214 323 549 568 915 671 43 12 88 23 100 26 12 2 33 6 47 9 72 14 104 18 205
24 120 7 188 6 250 -3z"/>
<path d="M1429 4443 c0 -5 -2 -15 -4 -23 -2 -8 -6 -28 -9 -45 -3 -16 -11 -61
-18 -100 -7 -38 -12 -78 -11 -87 0 -10 -3 -18 -6 -18 -4 0 -7 -10 -8 -22 -2
-45 -7 -78 -13 -78 -3 0 -5 -12 -4 -27 0 -14 -9 -76 -22 -137 -12 -61 -25
-129 -28 -151 -14 -87 -18 -108 -22 -129 -3 -11 -7 -34 -9 -51 -10 -73 -16
-111 -20 -125 -4 -14 -7 -29 -21 -115 -3 -16 -7 -37 -9 -45 -2 -8 -6 -31 -9
-50 -3 -19 -8 -45 -10 -56 -2 -12 -7 -39 -10 -60 -4 -22 -14 -79 -22 -129 -9
-49 -18 -99 -20 -110 -1 -11 -10 -56 -19 -100 -8 -44 -16 -93 -17 -110 -1 -16
-7 -33 -12 -37 -25 -17 16 -28 104 -30 73 -1 94 2 96 13 1 8 4 28 7 44 3 17 8
50 12 75 4 25 9 52 12 60 6 16 8 30 11 68 1 12 7 22 13 22 7 0 9 -9 5 -22 -4
-13 -8 -39 -11 -58 -2 -19 -6 -46 -9 -60 -6 -26 -26 -131 -26 -137 0 -7 200
-2 201 5 3 31 17 107 19 107 1 0 4 11 5 25 2 14 7 39 10 55 3 17 6 45 7 63 1
17 5 32 9 32 5 0 6 7 3 15 -4 8 -1 21 5 29 6 7 8 15 5 18 -3 3 2 46 12 94 9
49 18 100 21 114 9 48 15 34 9 -20 -3 -30 -8 -71 -10 -90 -3 -19 -14 -82 -25
-140 -11 -58 -23 -123 -26 -145 -4 -22 -9 -48 -11 -58 -3 -10 -8 -34 -10 -54
-3 -20 -7 -40 -10 -44 -3 -5 40 -9 95 -9 62 0 102 4 107 11 3 6 8 30 10 53 2
22 6 52 9 66 3 14 8 39 10 55 12 66 11 65 85 65 l70 0 -2 279 c-1 154 -5 278
-9 275 -4 -2 -3 12 1 31 5 20 4 33 -1 29 -11 -6 -12 9 -2 20 9 8 12 46 3 41
-3 -2 -7 14 -7 36 -2 28 1 38 10 33 9 -5 9 -4 0 6 -9 9 -9 19 -2 33 6 11 7 17
2 14 -5 -3 -9 39 -9 94 0 54 3 99 8 99 4 0 7 -10 7 -22 -1 -13 2 -32 5 -43 3
-11 15 -51 26 -90 11 -38 22 -81 24 -95 4 -28 23 -108 96 -402 27 -108 52
-210 55 -227 18 -102 31 -110 187 -111 l126 0 11 33 c8 27 15 55 27 112 1 6
10 39 19 75 9 36 18 72 20 80 2 8 10 42 18 75 17 67 30 132 31 155 1 8 5 21
10 29 6 10 5 12 -2 7 -7 -4 -12 -3 -12 3 0 5 8 15 18 20 9 6 12 11 6 11 -12 0
-15 30 -3 30 4 0 6 9 4 20 -2 11 0 20 5 20 5 0 6 7 3 17 -5 12 -3 14 7 8 8 -5
11 -4 6 3 -9 15 22 144 37 154 9 6 9 8 0 8 -9 0 -10 7 -3 26 6 14 12 39 15 56
3 17 10 38 16 47 7 11 8 5 3 -24 -4 -22 -7 -239 -7 -483 0 -534 -18 -482 165
-482 l123 0 -2 657 c0 362 -2 661 -2 665 -1 4 -10 15 -21 25 -17 17 -39 19
-214 18 -107 0 -197 -3 -199 -5 -4 -4 -60 -208 -83 -299 -2 -9 -11 -43 -19
-76 -9 -33 -17 -67 -19 -75 -2 -8 -9 -35 -16 -60 -7 -25 -14 -53 -15 -62 -2
-10 -6 -22 -9 -26 -3 -5 -7 -19 -10 -33 -8 -40 -13 -61 -35 -145 -11 -44 -19
-91 -16 -104 2 -12 1 -20 -2 -16 -4 4 -8 12 -9 19 -2 7 -6 24 -9 39 -3 15 -9
38 -15 52 -5 13 -6 27 -3 30 3 3 0 13 -8 23 -12 15 -12 16 1 8 13 -8 13 -7 0
10 -8 10 -14 20 -12 22 6 6 -18 112 -53 238 -18 66 -41 152 -50 190 -36 148
-67 237 -90 257 -21 18 -23 27 -18 62 4 22 7 51 7 64 1 12 3 22 6 22 3 0 7 16
8 37 2 20 5 40 8 45 3 4 -40 8 -95 8 -70 0 -101 -4 -105 -12 -5 -10 -7 -10
-12 0 -4 8 -35 12 -105 12 -72 0 -99 -3 -100 -12 -1 -7 -3 -22 -5 -33 -2 -11
-5 -36 -8 -55 -10 -77 -19 -125 -25 -130 -3 -3 -7 -21 -7 -40 -1 -28 -24 -171
-48 -297 -2 -10 -11 -61 -20 -113 -9 -52 -18 -106 -21 -120 -12 -64 -28 -148
-31 -175 -3 -16 -8 -41 -11 -55 -4 -14 -7 -34 -8 -45 -3 -55 -18 -125 -27
-125 -5 0 -6 -4 -3 -10 5 -8 -1 -56 -20 -150 -13 -66 -27 -157 -27 -172 0 -10
-4 -18 -9 -18 -9 0 -6 47 6 115 3 11 7 36 9 55 3 19 9 49 13 65 4 17 6 33 5
37 -1 4 7 51 18 105 11 54 21 112 24 128 2 17 5 30 6 30 1 0 4 18 6 40 2 22 6
47 10 55 5 13 15 82 17 118 0 6 3 12 7 12 3 0 6 8 6 18 0 9 6 51 13 92 7 41
14 84 16 95 1 11 6 38 10 60 5 22 9 49 9 60 1 11 4 25 7 30 3 6 7 28 8 50 2
22 7 45 12 51 5 6 7 13 4 16 -4 4 3 53 20 138 3 14 8 41 11 60 3 19 9 54 14
78 l7 42 -98 0 c-55 0 -99 -3 -100 -7z m415 -81 c-4 -20 -8 -39 -9 -42 0 -3
-4 -26 -9 -53 -4 -26 -11 -45 -16 -42 -5 3 -7 13 -5 23 1 9 8 46 15 82 6 36
14 72 17 80 10 28 15 -9 7 -48z"/>
<path d="M4425 4220 c-1 -3 -2 -301 -3 -663 0 -654 0 -658 21 -678 18 -17 36
-19 154 -19 l133 0 0 279 0 278 73 -4 c85 -4 98 -6 115 -16 6 -5 12 -5 12 0 0
23 106 -115 232 -301 78 -116 149 -216 157 -223 16 -12 331 -19 331 -7 0 6
-114 187 -191 302 -27 41 -49 78 -49 83 0 5 -4 9 -8 9 -4 0 -15 12 -24 28 -21
35 -104 118 -140 140 -36 21 -35 29 3 30 133 4 273 133 300 277 42 225 -101
433 -327 477 -58 11 -783 19 -789 8z m747 -269 c41 -16 62 -55 61 -116 -1 -91
-53 -154 -135 -162 -24 -3 -118 -7 -209 -10 l-166 -5 3 54 c2 29 3 99 3 155
l1 102 208 -3 c114 -3 219 -9 234 -15z"/>
<path d="M5770 3564 c0 -364 3 -669 6 -678 3 -9 10 -13 15 -10 5 3 9 0 9 -5 0
-7 45 -11 128 -11 l128 0 -2 223 c-1 122 -4 234 -7 250 -4 17 -1 27 6 27 8 0
8 3 -1 9 -8 4 -14 12 -14 16 0 4 6 12 14 16 8 6 9 9 1 9 -7 0 -10 14 -8 37 2
20 -1 45 -6 55 -5 10 -6 18 -2 18 10 0 10 86 1 96 -4 4 -3 14 1 23 13 24 13
24 2 54 -6 15 -7 27 -3 27 4 0 115 -176 247 -392 132 -215 252 -409 268 -430
l27 -38 140 0 140 0 0 664 0 665 -24 18 c-20 16 -40 18 -137 17 -63 -1 -116
-2 -119 -3 -3 0 -5 -194 -5 -431 0 -236 -3 -430 -7 -430 -3 0 -10 10 -14 23
-4 12 -10 24 -13 27 -4 3 -47 72 -96 154 -50 82 -100 165 -112 185 -12 20 -28
47 -36 61 -78 138 -243 396 -260 407 -6 4 -69 8 -139 8 l-128 1 0 -662z"/>
</g>
</svg>
